<?xml version="1.0" encoding="UTF-8" standalone="no"?>
<svg
   xmlns:dc="http://purl.org/dc/elements/1.1/"
   xmlns:cc="http://creativecommons.org/ns#"
   xmlns:rdf="http://www.w3.org/1999/02/22-rdf-syntax-ns#"
   xmlns:svg="http://www.w3.org/2000/svg"
   xmlns="http://www.w3.org/2000/svg"
   id="svg8"
   version="1.1"
   viewBox="0 0 12.7 12.7"
   height="48"
   width="48">
  <defs
     id="defs2">
    <marker
       orient="auto"
       refY="0.0"
       refX="0.0"
       id="DistanceEnd"
       style="overflow:visible">
      <g
         id="g2301">
        <path
           id="path2316"
           d="M 0,0 L -2,0"
           style="fill:none;stroke:#ffffff;stroke-width:1.15;stroke-linecap:square" />
        <path
           id="path2312"
           d="M 0,0 L -13,4 L -9,0 -13,-4 L 0,0 z "
           style="fill:#000000;fill-rule:evenodd;stroke:none" />
        <path
           id="path2314"
           d="M 0,-4 L 0,40"
           style="fill:none;stroke:#000000;stroke-width:1;stroke-linecap:square" />
      </g>
    </marker>
  </defs>
  <metadata
     id="metadata5">
    <rdf:RDF>
      <cc:Work
         rdf:about="">
        <dc:format>image/svg+xml</dc:format>
        <dc:type
           rdf:resource="http://purl.org/dc/dcmitype/StillImage" />
        <dc:title></dc:title>
      </cc:Work>
    </rdf:RDF>
  </metadata>
  <g
     id="layer2">
    <rect
       y="0.13783273"
       x="0.13783273"
       height="12.424335"
       width="12.424335"
       id="rect844"
       style="opacity:1;fill:#1da1f2;fill-opacity:1;stroke:#ff8d8b;stroke-width:0.27566493;stroke-miterlimit:4;stroke-dasharray:0, 3.03231428;stroke-dashoffset:0;stroke-opacity:0.03864734" />
  </g>
  <g
     transform="translate(0,-284.3)"
     id="layer1">
    <flowRoot
       style="fill:black;fill-opacity:1;stroke:none;font-family:'Schumacher Clean Wide';font-style:normal;font-weight:normal;font-size:16px;line-height:1.25;letter-spacing:0px;word-spacing:0px;-inkscape-font-specification:'Schumacher Clean Wide';font-stretch:normal;font-variant:normal"
       id="flowRoot4537"
       xml:space="preserve"><flowRegion
         id="flowRegion4539"><rect
           y="6.0357141"
           x="-5.5357141"
           height="41.160713"
           width="80.35714"
           id="rect4541" /></flowRegion><flowPara
         id="flowPara4543" /></flowRoot>    <flowRoot
       style="fill:black;fill-opacity:1;stroke:none;font-family:'Schumacher Clean Wide';font-style:normal;font-weight:normal;font-size:16px;line-height:1.25;letter-spacing:0px;word-spacing:0px;-inkscape-font-specification:'Schumacher Clean Wide';font-stretch:normal;font-variant:normal"
       id="flowRoot4545"
       xml:space="preserve"><flowRegion
         id="flowRegion4547"><rect
           y="11.660714"
           x="3.2142856"
           height="25.892857"
           width="31.785715"
           id="rect4549" /></flowRegion><flowPara
         id="flowPara4551" /></flowRoot>    <flowRoot
       style="fill:black;fill-opacity:1;stroke:none;font-family:'Schumacher Clean Wide';font-style:normal;font-weight:normal;font-size:16px;line-height:1.25;letter-spacing:0px;word-spacing:0px;-inkscape-font-specification:'Schumacher Clean Wide';font-stretch:normal;font-variant:normal"
       id="flowRoot4553"
       xml:space="preserve"><flowRegion
         id="flowRegion4555"><rect
           y="0.32142845"
           x="0.26785713"
           height="24.196428"
           width="16.160715"
           id="rect4557" /></flowRegion><flowPara
         id="flowPara4559" /></flowRoot>    <flowRoot
       transform="matrix(0.26458333,0,0,0.26458333,0,284.3)"
       style="font-style:normal;font-variant:normal;font-weight:normal;font-stretch:normal;font-size:16px;line-height:1.25;font-family:'Schumacher Clean Wide';-inkscape-font-specification:'Schumacher Clean Wide';letter-spacing:0px;word-spacing:0px;fill:#000000;fill-opacity:1;stroke:none"
       id="flowRoot4561"
       xml:space="preserve"><flowRegion
         id="flowRegion4563"><rect
           y="12.821428"
           x="3.8392856"
           height="19.196428"
           width="39.910713"
           id="rect4565" /></flowRegion><flowPara
         id="flowPara4567">WTNF</flowPara></flowRoot>    <g
       id="text4571"
       style="font-style:normal;font-variant:normal;font-weight:bold;font-stretch:normal;font-size:2.82222223px;line-height:1;font-family:Arial;-inkscape-font-specification:'Arial, Bold';font-variant-ligatures:normal;font-variant-caps:normal;font-variant-numeric:normal;font-feature-settings:normal;text-align:start;letter-spacing:0px;word-spacing:0px;writing-mode:lr-tb;text-anchor:start;fill:#000000;fill-opacity:1;stroke:none;stroke-width:0.23961036"
       aria-label="WHO TO NOT FOLLOW">
      <path
         id="path4600"
         style="font-style:normal;font-variant:normal;font-weight:bold;font-stretch:normal;font-size:2.82222223px;line-height:1;font-family:Arial;-inkscape-font-specification:'Arial, Bold';font-variant-ligatures:normal;font-variant-caps:normal;font-variant-numeric:normal;font-feature-settings:normal;text-align:start;letter-spacing:0px;word-spacing:0px;writing-mode:lr-tb;text-anchor:start;fill:#ffffff;fill-opacity:1;stroke-width:0.23961036"
         d="m 0.72553701,288.83789 -0.48231337,-2.0202 h 0.41754557 l 0.30454644,1.38768 0.36931425,-1.38768 h 0.4850694 l 0.3541559,1.41111 0.3100586,-1.41111 h 0.4106553 l -0.4905816,2.0202 h -0.432704 l -0.4023871,-1.51033 -0.4010091,1.51033 z" />
      <path
         id="path4602"
         style="font-style:normal;font-variant:normal;font-weight:bold;font-stretch:normal;font-size:2.82222223px;line-height:1;font-family:Arial;-inkscape-font-specification:'Arial, Bold';font-variant-ligatures:normal;font-variant-caps:normal;font-variant-numeric:normal;font-feature-settings:normal;text-align:start;letter-spacing:0px;word-spacing:0px;writing-mode:lr-tb;text-anchor:start;fill:#ffffff;fill-opacity:1;stroke-width:0.23961036"
         d="m 3.1040309,288.83789 v -2.0202 h 0.4078993 v 0.79512 h 0.7992622 v -0.79512 h 0.4078993 v 2.0202 H 4.3111924 v -0.88332 H 3.5119302 v 0.88332 z" />
      <path
         id="path4604"
         style="font-style:normal;font-variant:normal;font-weight:bold;font-stretch:normal;font-size:2.82222223px;line-height:1;font-family:Arial;-inkscape-font-specification:'Arial, Bold';font-variant-ligatures:normal;font-variant-caps:normal;font-variant-numeric:normal;font-feature-settings:normal;text-align:start;letter-spacing:0px;word-spacing:0px;writing-mode:lr-tb;text-anchor:start;fill:#ffffff;fill-opacity:1;stroke-width:0.23961036"
         d="m 5.0580889,287.84019 q 0,-0.30868 0.092329,-0.51814 0.068902,-0.15434 0.1874132,-0.27699 0.1198893,-0.12264 0.2618272,-0.1819 0.1887913,-0.0799 0.4354601,-0.0799 0.4464844,0 0.7138238,0.27698 0.2687174,0.27699 0.2687174,0.77032 0,0.48921 -0.2659613,0.76619 -0.2659614,0.27561 -0.7110677,0.27561 -0.4506185,0 -0.7165799,-0.27423 -0.2659614,-0.27561 -0.2659614,-0.75792 z m 0.4203017,-0.0138 q 0,0.34313 0.1584744,0.5209 0.1584744,0.17639 0.4023871,0.17639 0.2439128,0 0.3996311,-0.17501 0.1570964,-0.17639 0.1570964,-0.52779 0,-0.34727 -0.1529623,-0.51814 -0.1515842,-0.17088 -0.4037652,-0.17088 -0.252181,0 -0.4065213,0.17363 -0.1543402,0.17226 -0.1543402,0.5209 z" />
      <path
         id="path4606"
         style="font-style:normal;font-variant:normal;font-weight:bold;font-stretch:normal;font-size:2.82222223px;line-height:1;font-family:Arial;-inkscape-font-specification:'Arial, Bold';font-variant-ligatures:normal;font-variant-caps:normal;font-variant-numeric:normal;font-feature-settings:normal;text-align:start;letter-spacing:0px;word-spacing:0px;writing-mode:lr-tb;text-anchor:start;fill:#ffffff;fill-opacity:1;stroke-width:0.23961036"
         d="m 8.5748424,288.83789 v -1.67845 H 7.9753958 v -0.34175 h 1.6054145 v 0.34175 H 8.9827417 v 1.67845 z" />
      <path
         id="path4608"
         style="font-style:normal;font-variant:normal;font-weight:bold;font-stretch:normal;font-size:2.82222223px;line-height:1;font-family:Arial;-inkscape-font-specification:'Arial, Bold';font-variant-ligatures:normal;font-variant-caps:normal;font-variant-numeric:normal;font-feature-settings:normal;text-align:start;letter-spacing:0px;word-spacing:0px;writing-mode:lr-tb;text-anchor:start;fill:#ffffff;fill-opacity:1;stroke-width:0.23961036"
         d="m 9.7103459,287.84019 q 0,-0.30868 0.092329,-0.51814 0.068902,-0.15434 0.1874132,-0.27699 0.1198894,-0.12264 0.2618274,-0.1819 0.188791,-0.0799 0.43546,-0.0799 0.446484,0 0.713824,0.27698 0.268717,0.27699 0.268717,0.77032 0,0.48921 -0.265961,0.76619 -0.265962,0.27561 -0.711068,0.27561 -0.450618,0 -0.7165797,-0.27423 -0.2659614,-0.27561 -0.2659614,-0.75792 z m 0.4203021,-0.0138 q 0,0.34313 0.158474,0.5209 0.158474,0.17639 0.402387,0.17639 0.243913,0 0.399631,-0.17501 0.157097,-0.17639 0.157097,-0.52779 0,-0.34727 -0.152963,-0.51814 -0.151584,-0.17088 -0.403765,-0.17088 -0.252181,0 -0.406521,0.17363 -0.15434,0.17226 -0.15434,0.5209 z" />
      <path
         id="path4610"
         style="font-style:normal;font-variant:normal;font-weight:bold;font-stretch:normal;font-size:2.82222223px;line-height:1;font-family:Arial;-inkscape-font-specification:'Arial, Bold';font-variant-ligatures:normal;font-variant-caps:normal;font-variant-numeric:normal;font-feature-settings:normal;text-align:start;letter-spacing:0px;word-spacing:0px;writing-mode:lr-tb;text-anchor:start;fill:#14171a;fill-opacity:1;stroke-width:0.23961036"
         d="m 0.44303918,291.66011 v -2.0202 h 0.396875 l 0.82682292,1.3491 v -1.3491 h 0.3789605 v 2.0202 H 1.6364203 l -0.81442062,-1.3174 v 1.3174 z" />
      <path
         id="path4612"
         style="font-style:normal;font-variant:normal;font-weight:bold;font-stretch:normal;font-size:2.82222223px;line-height:1;font-family:Arial;-inkscape-font-specification:'Arial, Bold';font-variant-ligatures:normal;font-variant-caps:normal;font-variant-numeric:normal;font-feature-settings:normal;text-align:start;letter-spacing:0px;word-spacing:0px;writing-mode:lr-tb;text-anchor:start;fill:#14171a;fill-opacity:1;stroke-width:0.23961036"
         d="m 2.3943414,290.66241 q 0,-0.30868 0.092328,-0.51814 0.068902,-0.15434 0.1874132,-0.27698 0.1198893,-0.12265 0.2618273,-0.18191 0.1887912,-0.0799 0.4354601,-0.0799 0.4464843,0 0.7138237,0.27698 0.2687175,0.27699 0.2687175,0.77033 0,0.4892 -0.2659614,0.76619 -0.2659614,0.2756 -0.7110677,0.2756 -0.4506185,0 -0.7165799,-0.27423 -0.2659613,-0.2756 -0.2659613,-0.75792 z m 0.4203016,-0.0138 q 0,0.34313 0.1584744,0.5209 0.1584744,0.17639 0.4023872,0.17639 0.2439127,0 0.399631,-0.17501 0.1570964,-0.17639 0.1570964,-0.52779 0,-0.34726 -0.1529622,-0.51814 -0.1515842,-0.17088 -0.4037652,-0.17088 -0.252181,0 -0.4065213,0.17363 -0.1543403,0.17226 -0.1543403,0.5209 z" />
      <path
         id="path4614"
         style="font-style:normal;font-variant:normal;font-weight:bold;font-stretch:normal;font-size:2.82222223px;line-height:1;font-family:Arial;-inkscape-font-specification:'Arial, Bold';font-variant-ligatures:normal;font-variant-caps:normal;font-variant-numeric:normal;font-feature-settings:normal;text-align:start;letter-spacing:0px;word-spacing:0px;writing-mode:lr-tb;text-anchor:start;fill:#14171a;fill-opacity:1;stroke-width:0.23961036"
         d="m 5.1269913,291.66011 v -1.67845 H 4.5275446 v -0.34175 h 1.6054145 v 0.34175 H 5.5348906 v 1.67845 z" />
      <path
         id="path4616"
         style="font-style:normal;font-variant:normal;font-weight:bold;font-stretch:normal;font-size:2.82222223px;line-height:1;font-family:Arial;-inkscape-font-specification:'Arial, Bold';font-variant-ligatures:normal;font-variant-caps:normal;font-variant-numeric:normal;font-feature-settings:normal;text-align:start;letter-spacing:0px;word-spacing:0px;writing-mode:lr-tb;text-anchor:start;fill:#ffffff;fill-opacity:1;stroke-width:0.23961036"
         d="m 0.44166114,294.48234 v -2.02021 H 1.8265895 v 0.34175 H 0.84956045 v 0.47818 H 1.6929198 v 0.34176 H 0.84956045 v 0.85852 z" />
      <path
         id="path4618"
         style="font-style:normal;font-variant:normal;font-weight:bold;font-stretch:normal;font-size:2.82222223px;line-height:1;font-family:Arial;-inkscape-font-specification:'Arial, Bold';font-variant-ligatures:normal;font-variant-caps:normal;font-variant-numeric:normal;font-feature-settings:normal;text-align:start;letter-spacing:0px;word-spacing:0px;writing-mode:lr-tb;text-anchor:start;fill:#ffffff;fill-opacity:1;stroke-width:0.23961036"
         d="m 2.0801486,293.48464 q 0,-0.30869 0.092329,-0.51815 0.068902,-0.15434 0.1874132,-0.27698 0.1198893,-0.12265 0.2618272,-0.1819 0.1887912,-0.0799 0.4354601,-0.0799 0.4464844,0 0.7138238,0.27699 0.2687174,0.27698 0.2687174,0.77032 0,0.4892 -0.2659614,0.76619 -0.2659613,0.27561 -0.7110677,0.27561 -0.4506185,0 -0.7165798,-0.27423 -0.2659614,-0.27561 -0.2659614,-0.75792 z m 0.4203017,-0.0138 q 0,0.34313 0.1584743,0.52089 0.1584744,0.17639 0.4023872,0.17639 0.2439128,0 0.3996311,-0.17501 0.1570963,-0.17639 0.1570963,-0.52779 0,-0.34726 -0.1529622,-0.51814 -0.1515842,-0.17088 -0.4037652,-0.17088 -0.252181,0 -0.4065213,0.17364 -0.1543402,0.17225 -0.1543402,0.5209 z" />
      <path
         id="path4620"
         style="font-style:normal;font-variant:normal;font-weight:bold;font-stretch:normal;font-size:2.82222223px;line-height:1;font-family:Arial;-inkscape-font-specification:'Arial, Bold';font-variant-ligatures:normal;font-variant-caps:normal;font-variant-numeric:normal;font-feature-settings:normal;text-align:start;letter-spacing:0px;word-spacing:0px;writing-mode:lr-tb;text-anchor:start;fill:#ffffff;fill-opacity:1;stroke-width:0.23961036"
         d="m 4.3690699,294.48234 v -2.00367 h 0.4078994 v 1.66329 h 1.0142361 v 0.34038 z" />
      <path
         id="path4622"
         style="font-style:normal;font-variant:normal;font-weight:bold;font-stretch:normal;font-size:2.82222223px;line-height:1;font-family:Arial;-inkscape-font-specification:'Arial, Bold';font-variant-ligatures:normal;font-variant-caps:normal;font-variant-numeric:normal;font-feature-settings:normal;text-align:start;letter-spacing:0px;word-spacing:0px;writing-mode:lr-tb;text-anchor:start;fill:#ffffff;fill-opacity:1;stroke-width:0.23961036"
         d="m 6.0929958,294.48234 v -2.00367 h 0.4078993 v 1.66329 h 1.0142361 v 0.34038 z" />
      <path
         id="path4624"
         style="font-style:normal;font-variant:normal;font-weight:bold;font-stretch:normal;font-size:2.82222223px;line-height:1;font-family:Arial;-inkscape-font-specification:'Arial, Bold';font-variant-ligatures:normal;font-variant-caps:normal;font-variant-numeric:normal;font-feature-settings:normal;text-align:start;letter-spacing:0px;word-spacing:0px;writing-mode:lr-tb;text-anchor:start;fill:#ffffff;fill-opacity:1;stroke-width:0.23961036"
         d="m 7.7232148,293.48464 q 0,-0.30869 0.092328,-0.51815 0.068902,-0.15434 0.1874132,-0.27698 0.1198893,-0.12265 0.2618273,-0.1819 0.1887912,-0.0799 0.4354601,-0.0799 0.4464843,0 0.7138237,0.27699 0.2687175,0.27698 0.2687175,0.77032 0,0.4892 -0.2659614,0.76619 -0.2659614,0.27561 -0.7110677,0.27561 -0.4506185,0 -0.7165799,-0.27423 -0.2659613,-0.27561 -0.2659613,-0.75792 z m 0.4203016,-0.0138 q 0,0.34313 0.1584744,0.52089 0.1584744,0.17639 0.4023872,0.17639 0.2439127,0 0.399631,-0.17501 0.1570964,-0.17639 0.1570964,-0.52779 0,-0.34726 -0.1529622,-0.51814 -0.1515842,-0.17088 -0.4037652,-0.17088 -0.252181,0 -0.4065213,0.17364 -0.1543403,0.17225 -0.1543403,0.5209 z" />
      <path
         id="path4626"
         style="font-style:normal;font-variant:normal;font-weight:bold;font-stretch:normal;font-size:2.82222223px;line-height:1;font-family:Arial;-inkscape-font-specification:'Arial, Bold';font-variant-ligatures:normal;font-variant-caps:normal;font-variant-numeric:normal;font-feature-settings:normal;text-align:start;letter-spacing:0px;word-spacing:0px;writing-mode:lr-tb;text-anchor:start;fill:#ffffff;fill-opacity:1;stroke-width:0.23961036"
         d="m 10.287744,294.48234 -0.4823131,-2.02021 h 0.4175451 l 0.304547,1.38769 0.369314,-1.38769 h 0.48507 l 0.354155,1.41111 0.310059,-1.41111 h 0.410655 l -0.490581,2.02021 h -0.432704 l -0.402387,-1.51033 -0.40101,1.51033 z" />
    </g>
  </g>
</svg>
